<mxfile host="65bd71144e">
    <diagram id="cMZNiLZAIjO0tA2TXMLO" name="Page-1">
        <mxGraphModel dx="886" dy="711" grid="1" gridSize="10" guides="1" tooltips="1" connect="1" arrows="1" fold="1" page="1" pageScale="1" pageWidth="850" pageHeight="1100" background="#FFFFFF" math="0" shadow="0">
            <root>
                <mxCell id="0"/>
                <mxCell id="1" parent="0"/>
                <mxCell id="19" value="" style="rounded=0;whiteSpace=wrap;html=1;shadow=0;" vertex="1" parent="1">
                    <mxGeometry x="180" y="170" width="230" height="70" as="geometry"/>
                </mxCell>
                <mxCell id="7" style="edgeStyle=orthogonalEdgeStyle;html=1;" parent="1" target="3" edge="1">
                    <mxGeometry relative="1" as="geometry">
                        <mxPoint x="410" y="205" as="sourcePoint"/>
                    </mxGeometry>
                </mxCell>
                <mxCell id="8" style="edgeStyle=orthogonalEdgeStyle;html=1;" parent="1" target="4" edge="1">
                    <mxGeometry relative="1" as="geometry">
                        <mxPoint x="365" y="240" as="sourcePoint"/>
                        <Array as="points">
                            <mxPoint x="365" y="270"/>
                            <mxPoint x="435" y="270"/>
                        </Array>
                    </mxGeometry>
                </mxCell>
                <mxCell id="14" style="edgeStyle=orthogonalEdgeStyle;html=1;" parent="1" target="12" edge="1">
                    <mxGeometry relative="1" as="geometry">
                        <Array as="points">
                            <mxPoint x="510" y="205"/>
                            <mxPoint x="510" y="255"/>
                        </Array>
                        <mxPoint x="410" y="205" as="sourcePoint"/>
                    </mxGeometry>
                </mxCell>
                <mxCell id="2" value="Skill Logic" style="rounded=0;whiteSpace=wrap;html=1;shadow=1;" parent="1" vertex="1">
                    <mxGeometry x="330" y="180" width="70" height="50" as="geometry"/>
                </mxCell>
                <mxCell id="3" value="DynamoDB" style="rounded=0;whiteSpace=wrap;html=1;shadow=1;" parent="1" vertex="1">
                    <mxGeometry x="450" y="80" width="70" height="50" as="geometry"/>
                </mxCell>
                <mxCell id="4" value="S3" style="rounded=0;whiteSpace=wrap;html=1;shadow=1;" parent="1" vertex="1">
                    <mxGeometry x="400" y="300" width="70" height="50" as="geometry"/>
                </mxCell>
                <mxCell id="18" style="html=1;entryX=0.058;entryY=-0.014;entryDx=0;entryDy=0;entryPerimeter=0;" edge="1" parent="1" source="5" target="19">
                    <mxGeometry relative="1" as="geometry"/>
                </mxCell>
                <mxCell id="5" value="Alexa" style="ellipse;shape=cloud;whiteSpace=wrap;html=1;shadow=0;" parent="1" vertex="1">
                    <mxGeometry x="60" y="40" width="120" height="80" as="geometry"/>
                </mxCell>
                <mxCell id="10" value="Stores user persistent data (e.g. scores)" style="text;html=1;strokeColor=none;fillColor=none;align=center;verticalAlign=middle;whiteSpace=wrap;rounded=0;" parent="1" vertex="1">
                    <mxGeometry x="520" y="75" width="100" height="60" as="geometry"/>
                </mxCell>
                <mxCell id="11" value="Stores static content (e.g. audio files)" style="text;html=1;strokeColor=none;fillColor=none;align=center;verticalAlign=middle;whiteSpace=wrap;rounded=0;" parent="1" vertex="1">
                    <mxGeometry x="470" y="295" width="120" height="60" as="geometry"/>
                </mxCell>
                <mxCell id="12" value="Alexa API" style="rounded=0;whiteSpace=wrap;html=1;shadow=1;" parent="1" vertex="1">
                    <mxGeometry x="615" y="230" width="70" height="50" as="geometry"/>
                </mxCell>
                <mxCell id="13" value="Provides additional user metadata (e.g. timezone)" style="text;html=1;strokeColor=none;fillColor=none;align=center;verticalAlign=middle;whiteSpace=wrap;rounded=0;" parent="1" vertex="1">
                    <mxGeometry x="580" y="180" width="140" height="50" as="geometry"/>
                </mxCell>
                <mxCell id="17" style="edgeStyle=orthogonalEdgeStyle;html=1;" edge="1" parent="1" source="15" target="2">
                    <mxGeometry relative="1" as="geometry"/>
                </mxCell>
                <mxCell id="15" value="GEV&lt;br&gt;Engine" style="rounded=0;whiteSpace=wrap;html=1;shadow=1;" vertex="1" parent="1">
                    <mxGeometry x="190" y="180" width="70" height="50" as="geometry"/>
                </mxCell>
                <mxCell id="20" value="Implements core skill logic and flow" style="text;html=1;strokeColor=none;fillColor=none;align=center;verticalAlign=middle;whiteSpace=wrap;rounded=0;" vertex="1" parent="1">
                    <mxGeometry x="200" y="240" width="105" height="30" as="geometry"/>
                </mxCell>
            </root>
        </mxGraphModel>
    </diagram>
</mxfile>
